<svg width="6" height="7" viewBox="0 0 6 7" fill="none" xmlns="http://www.w3.org/2000/svg">
<path d="M5.82595 0.00145647L4.71736 0C3.47189 0 2.66701 0.676165 2.66701 1.72271V2.51699H1.55237C1.45605 2.51699 1.37805 2.58093 1.37805 2.6598V3.81063C1.37805 3.8895 1.45614 3.95336 1.55237 3.95336H2.66701V6.85727C2.66701 6.93613 2.74501 7 2.84133 7H4.29562C4.39194 7 4.46993 6.93606 4.46993 6.85727V3.95336H5.77321C5.86953 3.95336 5.94753 3.8895 5.94753 3.81063L5.94806 2.6598C5.94806 2.62193 5.92965 2.58567 5.89701 2.55887C5.86437 2.53207 5.8199 2.51699 5.77366 2.51699H4.46993V1.84367C4.46993 1.52004 4.56412 1.35575 5.07897 1.35575L5.82577 1.35553C5.922 1.35553 6 1.2916 6 1.2128V0.14419C6 0.0654682 5.92209 0.00160211 5.82595 0.00145647Z" fill="#303030"/>
</svg>
