<svg width="7" height="7" viewBox="0 0 7 7" fill="none" xmlns="http://www.w3.org/2000/svg">
<g clip-path="url(#clip0)">
<path d="M6.99825 6.9999V6.99961H7V4.43236C7 3.17644 6.72963 2.20898 5.26138 2.20898C4.55554 2.20898 4.08187 2.59632 3.8885 2.96353H3.86808V2.32623H2.47595V6.99961H3.92554V4.68553C3.92554 4.07623 4.04104 3.48707 4.79558 3.48707C5.53904 3.48707 5.55013 4.1824 5.55013 4.72461V6.9999H6.99825Z" fill="#303030"/>
<path d="M0.115479 2.32666H1.56681V7.00003H0.115479V2.32666Z" fill="#303030"/>
<path d="M0.840583 0C0.376542 0 0 0.376542 0 0.840583C0 1.30463 0.376542 1.68904 0.840583 1.68904C1.30462 1.68904 1.68117 1.30463 1.68117 0.840583C1.68087 0.376542 1.30433 0 0.840583 0V0Z" fill="#303030"/>
</g>
<defs>
<clipPath id="clip0">
<rect width="7" height="7" fill="white"/>
</clipPath>
</defs>
</svg>
