<svg width="7" height="7" viewBox="0 0 7 7" fill="none" xmlns="http://www.w3.org/2000/svg">
<g clip-path="url(#clip0)">
<path d="M6.99999 1.32917C6.74242 1.44338 6.46567 1.52059 6.17517 1.5553C6.47166 1.37757 6.69938 1.09613 6.80662 0.760761C6.52909 0.925356 6.22178 1.04486 5.89464 1.10926C5.63269 0.830146 5.25943 0.655762 4.84637 0.655762C4.05325 0.655762 3.41025 1.29873 3.41025 2.09184C3.41025 2.2044 3.42295 2.314 3.44744 2.41913C2.25388 2.35922 1.19567 1.78749 0.48736 0.918602C0.363739 1.13071 0.292905 1.3774 0.292905 1.6406C0.292905 2.13885 0.546436 2.57843 0.93179 2.83597C0.696375 2.8285 0.474932 2.7639 0.281325 2.65633C0.281189 2.66232 0.281189 2.66834 0.281189 2.67439C0.281189 3.37021 0.776232 3.95063 1.43319 4.08259C1.3127 4.11539 1.18581 4.133 1.05484 4.133C0.962292 4.133 0.872332 4.12397 0.784627 4.10718C0.967392 4.67771 1.49775 5.09298 2.12619 5.10453C1.63469 5.48975 1.01545 5.71931 0.342589 5.71931C0.226665 5.71931 0.112355 5.71253 0 5.6992C0.635549 6.10672 1.39044 6.34447 2.20145 6.34447C4.843 6.34447 6.28753 4.15613 6.28753 2.25834C6.28753 2.19608 6.28611 2.13415 6.28336 2.07254C6.56399 1.87008 6.80747 1.61715 6.99999 1.32917Z" fill="#303030"/>
</g>
<defs>
<clipPath id="clip0">
<rect width="7" height="7" fill="white"/>
</clipPath>
</defs>
</svg>
