<svg xmlns="http://www.w3.org/2000/svg" viewBox="0 0 4990 1267" width="100%" height="100%">
  <path fill="none" class="draw" stroke="currentColor" stroke-width=".75" d="M-3,1178.84822 C152.108414,1146.2 1103.14244,1382.93933 1748.05017,1187.01545 C2006.19568,1108.59063 1952.13437,1316.60643 1833.76471,1248.23519 C1723.507,1184.55561 2051.12239,889.049482 2054.17647,714.559426 C2056.65013,573.456926 2110.72526,395.843697 2152.3146,410.208914 C2152.3146,410.208914 2342.48271,446.857837 2374.59198,448.225953 C2406.70125,449.587159 2330.52897,409.524856 2294.99251,393.128194 C2259.46986,376.724623 2212.92628,350.74424 2186.96663,380.124183 C2161.00007,409.504127 2159.06536,489.214153 2180.81011,429.998227 C2226.81473,304.787982 2262.80724,150.881852 2219.0759,145.754872 C2175.34455,140.634802 2211.64799,215.514964 2218.39184,233.901613 C2238.20879,287.880004 2277.83578,315.207774 2342.06813,286.511889 C2352.40501,281.896225 2399.35626,200.389683 2394.67841,212.371062 C2371.1095,272.844549 2428.45982,288.370591 2430.89202,286.511889 C2442.5141,277.632955 2432.9442,282.414451 2422.69715,273.528607 C2412.44319,264.649673 2396.04653,249.614217 2398.78276,225.015769 C2401.51208,200.417322 2452.75424,180.60728 2459.59482,241.412431 C2466.42849,302.224493 2473.25525,243.464605 2477.3596,219.543306 C2481.45703,195.635826 2435.68043,189.486214 2376.22957,185.381866 C2316.78563,181.284428 2171.24712,157.370038 2230.007,65.1258595 C2288.7738,-27.1183193 2425.42647,2.26162441 2461.64699,19.3492539 C2497.86061,36.4230641 2568.23566,71.9595294 2587.36855,91.776481 C2606.49454,111.586523 2598.29966,149.175162 2568.91972,150.536368 C2539.53977,151.904484 2489.65882,166.93303 2459.59482,140.289318 C2429.53082,113.638697 2447.28869,73.3207356 2510.15292,112.270581 C2573.02406,151.220426 2562.08605,139.681267 2572.3331,151.904484 C2590.09788,173.089552 2573.02406,208.612198 2573.02406,208.612198 C2573.02406,208.612198 2558.67267,201.785438 2542.27601,211.34843 C2525.87243,220.918331 2547.0575,248.246101 2553.20711,245.509869 C2559.34982,242.780547 2553.88426,219.543306 2562.08605,224.331711 C2570.28092,229.113207 2572.3331,235.262819 2572.3331,235.262819 C2572.3331,235.262819 2590.09788,272.844549 2601.71995,294.706765 C2613.88098,317.612342 2573.02406,317.259948 2572.3331,309.065072 C2571.64904,300.863286 2575.06933,285.827831 2570.97189,278.994161 C2566.86754,272.167401 2568.5535,327.46554 2572.3331,335.024726 C2577.79865,345.955834 2560.04078,350.053272 2545.68939,352.796413 C2531.3449,355.525736 2567.5516,358.261967 2573.70121,360.307232 C2579.85083,362.352496 2561.40199,371.922397 2557.98861,386.957853 C2554.56832,401.986399 2577.10768,421.955364 2552.52306,435.463781 C2514.60275,456.310274 2466.67724,419.080938 2458.2267,417.360429 C2307.56121,386.612369 2491.95974,448.910011 2461.30151,446.063224 C2433.57989,443.485915 2384.43136,420.435235 2357.78074,477.827006 C2331.13703,535.225687 2319.86043,633.619478 2430.55345,694.092965 C2541.24646,754.559543 2322.93524,781.217074 2343.43625,762.768238 C2505.29542,617.091532 2509.46886,1043.5913 2411.07507,1170.68789 C2343.07695,1258.51678 2503.32616,1131.73804 2513.57321,955.444562 C2525.75497,745.984634 2586.33901,644.89607 2647.84204,660.2701 C2647.84204,660.2701 2926.62675,756.611717 3003.4969,774.031011 C3080.36014,791.464124 3084.45758,938.025268 2935.85117,921.628606 C2787.23094,905.231944 2692.93459,882.678761 2622.21405,821.189551 C2551.50042,759.686522 2514.60275,704.346925 2505.37833,670.51715 C2496.15392,636.701194 2361.88509,649.000418 2359.83291,524.985547 C2357.78074,400.956857 2439.77787,382.508022 2542.27601,483.983528 C2644.76723,585.452125 2782.11087,723.818393 2800.5528,741.237687 C2819.00163,758.66389 3102.90641,806.838154 3109.05602,810.935592 C3115.21255,815.03303 3099.83161,926.748676 3048.58945,929.823482 C2997.34038,932.905198 3064.98611,948.272318 3089.58456,918.5538 C3114.183,888.828373 3134.68401,843.728915 3129.55703,819.137377 C3124.43005,794.53202 3138.78145,808.883418 3157.23029,801.711174 C3175.67221,794.53202 3219.74904,780.187532 3218.72641,798.636368 C3217.70377,817.085204 3198.2254,816.062572 3181.82874,817.085204 C3165.43207,818.107836 3155.18502,841.683651 3180.8061,843.728915 C3206.42718,845.781089 3240.25005,841.683651 3243.32485,819.137377 C3246.39966,796.584194 3227.95082,792.486756 3231.02563,781.217074 C3234.10044,769.940482 3254.59454,780.187532 3275.09555,796.584194 C3295.59656,812.980856 3308.92532,908.299841 3290.46958,919.576432 C3272.02074,930.853024 3258.69888,864.229925 3241.27959,872.431711 C3223.84648,880.626587 3287.39477,946.220144 3249.47447,948.272318 C3211.55416,950.324492 3284.31996,963.653258 3212.57679,973.900308 C3140.83363,984.147358 3118.28044,976.975113 3115.21255,938.025268 C3115.21255,938.025268 3110.07866,950.324492 3149.0285,942.129616 C3187.97835,933.92783 3207.44981,930.853024 3200.27757,944.18179 C3193.10533,957.496736 3189.00098,965.698522 3153.13285,955.444562 C3117.25781,945.204422 3235.12307,932.905198 3251.52664,924.703412 C3267.9233,916.508536 3320.195,868.334273 3310.97059,837.586213 C3301.74617,806.838154 3277.14772,780.187532 3297.64873,776.083184 C3318.14974,771.992656 3362.21965,777.112726 3367.33972,827.332254 C3372.4667,877.558691 3338.63693,904.202403 3318.14974,906.254576 C3297.64873,908.299841 3362.21965,924.703412 3388.86337,916.508536 C3415.50708,908.299841 3463.68134,887.805741 3453.43429,825.28008 C3443.18724,762.768238 3361.19011,765.836134 3347.86135,767.888308 C3334.5464,769.940482 3634.84784,660.2701 3800.88737,733.042811 C3966.92689,805.808612 3938.231,793.509388 3942.32844,782.239706 C3946.42588,770.963114 3938.231,744.319402 3826.50844,790.441492 C3826.50844,790.441492 3509.81034,902.150229 3464.71088,904.202403 C3419.61143,906.254576 3403.21476,779.1649 3446.26205,768.91094 C3489.30933,758.66389 3790.63341,629.52204 3819.3362,629.52204 C3848.03209,629.52204 3782.43853,615.170642 3850.08426,570.078095 C3917.72999,524.985547 3921.82743,539.330035 3923.8796,557.778871 C3925.93178,576.227707 3930.02922,510.62724 3987.4279,506.529802 C4044.82658,502.432364 4044.82658,502.432364 4044.82658,502.432364 C4044.82658,502.432364 4083.7626,568.025921 4114.51757,551.629259 C4145.26563,535.225687 4077.6199,502.432364 4073.52246,479.87918 C4069.41812,457.332906 4157.56486,465.534692 4163.71447,389.687175 C4163.71447,389.687175 4116.56284,454.603584 4053.70551,464.166576 C3990.84128,473.736478 3984.69166,463.482518 3984.00761,445.033683 C3983.32355,426.584847 3986.05978,410.188185 3981.27137,404.038573 C3976.48988,397.888961 4025.68677,410.188185 4035.93382,395.152729 C4046.18778,380.124183 4004.05258,396.320465 3992.89345,393.107465 C3964.85398,385.016234 3988.06359,382.929512 3984.00761,363.727521 C3984.00761,363.727521 3977.18085,350.053272 4004.50862,353.473562 C4031.8433,356.886942 3984.00761,373.974571 3965.55877,365.088728 C3947.10994,356.209794 3980.59423,326.82985 3983.32355,302.224493 C3986.05978,277.632955 4006.55388,256.447887 4035.93382,270.792375 C4065.31377,285.150682 4082.4014,303.599518 4061.90039,298.811112 C4041.39938,294.029616 4006.55388,281.723483 4009.97417,294.706765 C4013.39446,307.690046 4036.61788,305.637873 4028.42301,305.637873 C4020.22122,305.637873 3994.25466,311.110336 3971.71529,284.459715 C3949.16211,257.816003 3984.00761,209.303165 3986.73693,201.10138 C3989.47316,192.899594 4057.11889,191.538388 4068.05,220.234273 C4078.98802,248.930159 4069.41812,257.816003 4101.53429,276.941987 C4133.65047,296.08179 4163.03041,314.530626 4156.87389,327.506998 C4150.73119,340.49028 4157.56486,259.184119 4199.24402,271.476433 C4240.92319,283.775657 4234.08952,355.525736 4193.77847,360.99129 C4153.46051,366.456844 4191.04915,277.632955 4152.78336,253.027597 C4114.51757,228.436059 4055.75769,200.417322 4091.28033,188.802156 C4126.8168,177.18699 4081.03328,148.484195 4046.18778,156.001922 C4011.34229,163.51965 3957.35699,199.056115 3969.66312,141.657434 C3981.95543,84.2587532 4127.49395,48.0451397 4199.92808,86.994985 C4272.35531,125.94483 4253.22242,148.484195 4244.34348,149.85922 C4235.45764,151.220426 4262.78541,121.840483 4283.28642,164.887766 C4303.78743,207.93505 4297.6309,278.994161 4268.93502,315.207774 C4240.23913,351.421388 4217.0088,416.337797 4242.29131,441.620302 C4267.57381,466.895898 4279.87304,471.000246 4273.03937,448.447063 C4266.2057,425.907699 4249.12498,408.136011 4222.48127,449.822088 C4195.82373,491.501256 4161.66229,566.657805 4122.71245,573.491475 C4083.7626,580.325145 4055.06672,524.985547 4053.02145,522.242406 C4050.96928,519.513084 4035.25668,598.773981 4047.5559,608.336973 C4059.84821,617.906874 4061.90039,582.377319 4113.14946,591.256253 C4164.39162,600.135187 4194.46253,655.488604 4142.5294,643.873438 C4090.60318,632.258272 4080.34922,600.826154 4081.03328,630.890156 C4081.71734,660.954158 4089.23507,723.127425 4066.00474,784.630454 C4053.26329,818.342765 4049.55971,840.833761 4040.72223,871.402169 C4033.43252,896.608668 4028.83068,927.999328 4043.45155,958.864852 C4068.05,1010.79798 4077.6199,1031.29899 4100.85023,987.567647 C4105.02368,979.697526 4135.25351,935.586152 4133.65047,917.869742 C4125.44868,827.677737 4127.90853,696.5459 4139.11602,671.885266 C4152.78336,641.821264 4140.47723,547.524911 4177.3749,588.526931 C4214.27257,629.52204 4200.60523,647.286818 4237.5029,572.130269 C4274.40748,496.96681 4304.47148,469.63213 4331.80616,495.598694 C4359.13393,521.558348 4435.6586,546.163705 4434.29739,559.831045 C4432.92928,573.491475 4421.99817,676.673671 4409.69204,732.013269 C4397.39972,787.359776 4369.72647,871.402169 4410.72158,913.42682 C4451.71669,955.444562 4290.80414,758.66389 4407.64677,596.721807 C4524.4894,434.786633 4613.41002,1326.81203 4500.1397,1164.56592 C4461.2244,1108.83247 4708.30061,1185.99973 4993,1176.80295" ></path>
</svg>
